<svg xmlns="http://www.w3.org/2000/svg" xmlns:xlink="http://www.w3.org/1999/xlink" width="204" zoomAndPan="magnify" viewBox="0 0 153 153.000002" height="204" preserveAspectRatio="xMidYMid meet" version="1.0"><defs><g/></defs><g fill="#004aad" fill-opacity="0.302"><g transform="translate(9.193817, 145.459878)"><g><path d="M 138.988281 -41.359375 L 123.679688 -41.359375 C 118.90625 -32.609375 112.34375 -25.453125 103.992188 -20.28125 C 95.640625 -14.914062 86.296875 -12.328125 76.355469 -12.328125 C 61.441406 -12.328125 48.714844 -17.695312 38.175781 -28.832031 C 27.835938 -39.371094 22.867188 -52.296875 22.867188 -67.40625 C 22.867188 -82.519531 27.835938 -95.441406 38.175781 -106.179688 C 42.949219 -111.152344 48.714844 -115.128906 55.277344 -118.109375 C 61.640625 -121.09375 68.003906 -122.683594 74.367188 -122.683594 C 80.53125 -122.683594 85.898438 -121.890625 90.671875 -120.496094 C 105.1875 -116.121094 116.121094 -107.375 123.480469 -94.050781 L 138.789062 -94.050781 C 133.621094 -106.777344 125.46875 -117.117188 114.132812 -125.070312 C 102.601562 -133.023438 90.074219 -137 76.355469 -137 C 57.464844 -137 41.558594 -130.042969 28.433594 -116.320312 C 22.269531 -109.957031 17.496094 -102.402344 14.117188 -94.050781 C 10.539062 -85.699219 8.949219 -76.753906 8.949219 -67.40625 C 8.949219 -48.316406 15.3125 -32.210938 28.433594 -18.691406 C 41.558594 -4.773438 57.464844 1.988281 76.355469 1.988281 C 90.074219 1.988281 102.601562 -1.988281 114.332031 -9.941406 C 125.667969 -17.894531 133.820312 -28.234375 138.988281 -41.359375 Z M 138.988281 -41.359375 "/></g></g></g><g fill="#004aad" fill-opacity="0.502"><g transform="translate(5.216873, 145.459878)"><g><path d="M 138.988281 -41.359375 L 123.679688 -41.359375 C 118.90625 -32.609375 112.34375 -25.453125 103.992188 -20.28125 C 95.640625 -14.914062 86.296875 -12.328125 76.355469 -12.328125 C 61.441406 -12.328125 48.714844 -17.695312 38.175781 -28.832031 C 27.835938 -39.371094 22.867188 -52.296875 22.867188 -67.40625 C 22.867188 -82.519531 27.835938 -95.441406 38.175781 -106.179688 C 42.949219 -111.152344 48.714844 -115.128906 55.277344 -118.109375 C 61.640625 -121.09375 68.003906 -122.683594 74.367188 -122.683594 C 80.53125 -122.683594 85.898438 -121.890625 90.671875 -120.496094 C 105.1875 -116.121094 116.121094 -107.375 123.480469 -94.050781 L 138.789062 -94.050781 C 133.621094 -106.777344 125.46875 -117.117188 114.132812 -125.070312 C 102.601562 -133.023438 90.074219 -137 76.355469 -137 C 57.464844 -137 41.558594 -130.042969 28.433594 -116.320312 C 22.269531 -109.957031 17.496094 -102.402344 14.117188 -94.050781 C 10.539062 -85.699219 8.949219 -76.753906 8.949219 -67.40625 C 8.949219 -48.316406 15.3125 -32.210938 28.433594 -18.691406 C 41.558594 -4.773438 57.464844 1.988281 76.355469 1.988281 C 90.074219 1.988281 102.601562 -1.988281 114.332031 -9.941406 C 125.667969 -17.894531 133.820312 -28.234375 138.988281 -41.359375 Z M 138.988281 -41.359375 "/></g></g></g><g fill="#76c2d7" fill-opacity="1"><g transform="translate(1.239929, 145.459878)"><g><path d="M 138.988281 -41.359375 L 123.679688 -41.359375 C 118.90625 -32.609375 112.34375 -25.453125 103.992188 -20.28125 C 95.640625 -14.914062 86.296875 -12.328125 76.355469 -12.328125 C 61.441406 -12.328125 48.714844 -17.695312 38.175781 -28.832031 C 27.835938 -39.371094 22.867188 -52.296875 22.867188 -67.40625 C 22.867188 -82.519531 27.835938 -95.441406 38.175781 -106.179688 C 42.949219 -111.152344 48.714844 -115.128906 55.277344 -118.109375 C 61.640625 -121.09375 68.003906 -122.683594 74.367188 -122.683594 C 80.53125 -122.683594 85.898438 -121.890625 90.671875 -120.496094 C 105.1875 -116.121094 116.121094 -107.375 123.480469 -94.050781 L 138.789062 -94.050781 C 133.621094 -106.777344 125.46875 -117.117188 114.132812 -125.070312 C 102.601562 -133.023438 90.074219 -137 76.355469 -137 C 57.464844 -137 41.558594 -130.042969 28.433594 -116.320312 C 22.269531 -109.957031 17.496094 -102.402344 14.117188 -94.050781 C 10.539062 -85.699219 8.949219 -76.753906 8.949219 -67.40625 C 8.949219 -48.316406 15.3125 -32.210938 28.433594 -18.691406 C 41.558594 -4.773438 57.464844 1.988281 76.355469 1.988281 C 90.074219 1.988281 102.601562 -1.988281 114.332031 -9.941406 C 125.667969 -17.894531 133.820312 -28.234375 138.988281 -41.359375 Z M 138.988281 -41.359375 "/></g></g></g><g fill="#ffffff" fill-opacity="1"><g transform="translate(45.893935, 90.521309)"><g><path d="M 18.617188 -11.921875 L 18.617188 -9.933594 C 18.617188 -5.398438 15.9375 -2.460938 11.058594 -2.460938 C 8.8125 -2.460938 6.394531 -3.152344 5.054688 -4.792969 C 3.800781 -6.261719 1.554688 -4.320312 2.765625 -2.765625 C 4.835938 -0.300781 7.949219 0.433594 11.015625 0.433594 C 17.148438 0.433594 21.511719 -3.628906 21.511719 -9.976562 L 21.511719 -18.789062 C 21.511719 -24.492188 16.671875 -27.902344 11.617188 -27.902344 C 6.21875 -27.902344 1.121094 -24.101562 1.210938 -17.796875 C 1.296875 -12.179688 5.746094 -7.992188 11.230469 -7.992188 C 13.863281 -7.992188 17.105469 -9.199219 18.617188 -11.921875 Z M 11.617188 -25.050781 C 15.117188 -25.050781 18.445312 -22.675781 18.445312 -18.746094 L 18.445312 -16.800781 C 18.445312 -13.605469 15.550781 -10.839844 11.1875 -10.839844 C 7.429688 -10.839844 4.191406 -13.996094 4.191406 -17.796875 C 4.191406 -22.417969 7.773438 -25.050781 11.617188 -25.050781 Z M 11.617188 -25.050781 "/></g></g></g><g fill="#ffffff" fill-opacity="1"><g transform="translate(70.035112, 90.521309)"><g><path d="M 1.121094 -17.710938 L 1.121094 -9.890625 C 1.121094 -3.066406 6.089844 0.34375 11.144531 0.34375 C 16.199219 0.34375 21.207031 -3.066406 21.207031 -9.890625 L 21.207031 -17.710938 C 21.207031 -24.492188 16.199219 -27.902344 11.144531 -27.902344 C 6.089844 -27.902344 1.121094 -24.492188 1.121094 -17.710938 Z M 18.183594 -17.710938 L 18.183594 -9.890625 C 18.183594 -4.535156 14.640625 -2.460938 11.101562 -2.460938 C 7.601562 -2.460938 4.101562 -4.792969 4.101562 -9.890625 L 4.101562 -17.710938 C 4.101562 -23.023438 7.601562 -25.09375 11.101562 -25.09375 C 14.640625 -25.09375 18.183594 -23.023438 18.183594 -17.710938 Z M 18.183594 -17.710938 "/></g></g></g><g fill="#ffffff" fill-opacity="1"><g transform="translate(93.183005, 90.521309)"><g><path d="M 4.320312 0 L 23.023438 -26.5625 C 23.972656 -28.160156 21.683594 -29.5 20.777344 -28.074219 L 1.945312 -1.683594 C 0.777344 -0.214844 2.9375 1.640625 4.320312 0 Z M 6.304688 -27.902344 C 2.808594 -27.902344 0.519531 -24.921875 0.519531 -21.8125 C 0.519531 -18.140625 3.066406 -15.59375 6.304688 -15.59375 C 9.890625 -15.59375 12.09375 -18.789062 12.09375 -21.8125 C 12.09375 -25.269531 9.503906 -27.902344 6.304688 -27.902344 Z M 9.371094 -21.855469 C 9.285156 -19.695312 8.121094 -18.226562 6.304688 -18.226562 C 4.363281 -18.226562 3.195312 -20.128906 3.195312 -21.8125 C 3.195312 -23.667969 4.578125 -25.269531 6.304688 -25.269531 C 8.164062 -25.269531 9.328125 -23.539062 9.371094 -21.855469 Z M 18.53125 -11.878906 C 15.03125 -11.878906 12.742188 -8.898438 12.742188 -5.789062 C 12.742188 -2.117188 15.289062 0.433594 18.53125 0.433594 C 22.113281 0.433594 24.316406 -2.765625 24.316406 -5.789062 C 24.316406 -9.242188 21.726562 -11.878906 18.53125 -11.878906 Z M 21.597656 -5.832031 C 21.511719 -3.671875 20.34375 -2.203125 18.53125 -2.203125 C 16.585938 -2.203125 15.421875 -4.101562 15.421875 -5.789062 C 15.421875 -7.644531 16.800781 -9.242188 18.53125 -9.242188 C 20.386719 -9.242188 21.554688 -7.515625 21.597656 -5.832031 Z M 21.597656 -5.832031 "/></g></g></g><g fill="#ffffff" fill-opacity="1"><g transform="translate(119.710423, 90.521309)"><g/></g></g></svg>